<svg version="1.1" id="Layer_1" xmlns="http://www.w3.org/2000/svg" xmlns:xlink="http://www.w3.org/1999/xlink" x="0px" y="0px"
	 width="100%" viewBox="0 0 128 128" enable-background="new 0 0 128 128" xml:space="preserve">
<path fill="none" opacity="1.000000" stroke="#000000" stroke-linecap="round" stroke-linejoin="round" stroke-width="3.000000"
	d="
M31.000000,57.500000 
	C33.597992,53.083675 37.361809,51.778618 42.502369,51.880398 
	C58.829300,52.203663 75.166664,52.000000 91.500000,52.000000 
	C93.183334,52.000000 94.866669,52.000000 96.750000,52.000000 
	C96.750000,56.500000 96.750000,60.500000 96.750000,64.778511 
	C87.526695,65.554108 78.476120,65.153427 69.497337,65.248650 
	C60.693104,65.342003 51.831581,65.177437 42.999111,65.083855 
	C38.957596,65.041046 35.430458,64.767265 32.945370,61.036388 
	C32.125443,59.805431 30.666668,59.000000 29.500000,58.000000 
"/>
<path fill="none" opacity="1.000000" stroke="#000000" stroke-linecap="round" stroke-linejoin="round" stroke-width="3.000000"
	d="
M71.000000,71.500000 
	C72.603203,72.301270 74.357765,72.163078 75.994270,71.954941 
	C82.093819,71.179161 86.960854,72.827904 89.991234,78.500000 
	C86.960854,84.172096 82.108490,85.411140 75.994492,85.112869 
	C67.015862,84.674858 57.999962,85.013870 49.000034,84.988495 
	C47.163124,84.983315 45.326630,84.830719 43.500000,84.746536 
	C43.500000,80.666664 43.500000,76.833336 43.500000,72.591278 
	C52.410004,70.880081 61.551060,72.919083 70.500000,71.500000 
"/>
<path fill="none" opacity="1.000000" stroke="#000000" stroke-linecap="round" stroke-linejoin="round" stroke-width="2.000000"
	d="
M70.500000,86.000000 
	C70.500000,94.500000 70.500000,103.000000 70.500000,111.500000 
"/>
<path fill="none" opacity="1.000000" stroke="#000000" stroke-linecap="round" stroke-linejoin="round" stroke-width="3.000000"
	d="
M57.000000,86.000000 
	C57.000000,94.333336 57.000000,102.666664 57.000000,111.000000 
"/>
<path fill="none" opacity="1.000000" stroke="#000000" stroke-linecap="round" stroke-linejoin="round" stroke-width="3.000000"
	d="
M57.000000,32.499996 
	C54.824837,32.771893 52.649677,33.043785 50.250000,33.343742 
	C50.250000,36.500000 50.250000,39.500000 50.250000,43.000000 
	C59.493828,43.000000 68.496918,43.006344 77.500000,42.996727 
	C80.869049,42.993126 81.504311,39.671837 83.678169,38.381763 
	C81.375191,33.445438 77.557945,32.830250 72.998466,32.901112 
	C67.844337,32.981216 62.634335,33.668915 57.500000,32.500000 
"/>
<path fill="none" opacity="1.000000" stroke="#000000" stroke-linecap="round" stroke-linejoin="round" stroke-width="3.000000"
	d="
M70.000000,17.500000 
	C68.562950,19.631723 66.191467,20.325939 63.983089,20.939095 
	C58.184471,22.549084 55.915688,26.158466 57.000000,32.000000 
"/>
<path fill="none" opacity="1.000000" stroke="#000000" stroke-linecap="round" stroke-linejoin="round" stroke-width="2.000000"
	d="
M70.000000,19.500000 
	C71.141815,23.795828 70.183456,28.172432 70.500000,32.500000 
"/>
<path fill="none" opacity="1.000000" stroke="#000000" stroke-linecap="round" stroke-linejoin="round" stroke-width="3.000000"
	d="
M42.500000,112.500000 
	C49.308353,111.309158 56.167938,111.923363 62.999157,112.046646 
	C70.165611,112.175980 77.359299,111.216927 84.500000,112.500000 
"/>
<path fill="none" opacity="1.000000" stroke="#000000" stroke-linecap="round" stroke-linejoin="round" stroke-width="3.000000"
	d="
M50.000000,98.500000 
	C50.000000,102.666664 50.000000,106.833336 50.000000,111.000000 
"/>
<path fill="none" opacity="1.000000" stroke="#000000" stroke-linecap="round" stroke-linejoin="round" stroke-width="2.000000"
	d="
M70.000000,44.000000 
	C70.978096,46.275375 70.301750,48.668922 70.500000,51.000000 
"/>
<path fill="none" opacity="1.000000" stroke="#000000" stroke-linecap="round" stroke-linejoin="round" stroke-width="3.000000"
	d="
M57.000000,44.000000 
	C57.000000,46.333332 57.000000,48.666668 57.000000,51.000000 
"/>
<path fill="none" opacity="1.000000" stroke="#000000" stroke-linecap="round" stroke-linejoin="round" stroke-width="3.000000"
	d="
M77.000000,105.500000 
	C77.000000,107.333336 77.000000,109.166664 77.000000,111.000000 
"/>
<path fill="none" opacity="1.000000" stroke="#000000" stroke-linecap="round" stroke-linejoin="round" stroke-width="2.000000"
	d="
M70.000000,66.000000 
	C70.801270,67.603203 70.410400,69.325630 70.500000,71.000000 
"/>
</svg>