<svg version="1.1" id="Layer_1" xmlns="http://www.w3.org/2000/svg" xmlns:xlink="http://www.w3.org/1999/xlink" x="0px" y="0px"
	 width="100%" viewBox="0 0 320 320" enable-background="new 0 0 320 320" xml:space="preserve">
<path fill="#000000" opacity="1.000000" stroke="none" 
	d="
M183.796204,131.146423 
	C181.400177,133.643280 178.628189,133.175125 175.997818,133.229507 
	C173.613174,133.278824 171.178543,133.027710 171.292160,136.662674 
	C171.397491,140.032608 173.730698,139.674042 175.876160,139.679459 
	C184.870941,139.702148 193.868195,139.815720 202.859512,139.639175 
	C206.911484,139.559616 208.657898,141.007736 208.453430,145.161118 
	C208.232574,149.647598 208.274506,154.158417 208.446869,158.649231 
	C208.586136,162.277573 207.175369,163.709000 203.482376,163.679092 
	C194.503143,163.606369 185.520508,163.775467 176.541840,163.968109 
	C174.741699,164.006744 171.782501,163.145660 171.794418,166.013412 
	C171.805191,168.599365 174.616852,167.476089 176.255707,167.688828 
	C177.566376,167.858963 178.960663,167.947556 180.241867,167.691803 
	C189.202866,165.902908 193.262634,172.732788 198.250687,177.876404 
	C199.651855,179.321289 199.236816,180.955521 197.968323,182.353699 
	C192.791580,188.059677 187.874802,193.517929 178.670364,192.288818 
	C171.391083,191.316772 171.284760,192.097366 171.280655,199.473343 
	C171.276932,206.136169 171.233307,212.799530 171.312347,219.461411 
	C171.330154,220.962112 170.627289,223.296707 173.139267,223.347855 
	C175.222885,223.390289 174.820343,221.282196 175.018509,219.874588 
	C175.312225,217.788483 175.014420,214.944565 178.116806,215.189285 
	C180.894455,215.408386 180.363968,218.129852 180.290070,220.002487 
	C180.163406,223.212646 181.851730,223.947617 184.623276,223.971924 
	C186.711136,223.990234 189.492355,223.809921 189.202896,227.050568 
	C188.945465,229.932724 186.312851,229.288681 184.440414,229.293488 
	C167.616867,229.336700 150.793137,229.334488 133.969589,229.288147 
	C131.915405,229.282501 129.034149,229.820145 129.033493,226.645264 
	C129.032944,224.013870 131.618088,223.866867 133.592926,223.942673 
	C137.033188,224.074722 137.852051,222.296646 137.734406,219.287689 
	C137.604340,215.962341 137.702377,212.626083 137.768997,209.295929 
	C137.800308,207.731064 138.145020,206.169846 140.056534,205.967300 
	C142.274765,205.732269 143.000366,207.376663 143.081223,209.118134 
	C143.258728,212.941772 143.180969,216.776627 143.261459,220.605759 
	C143.289505,221.940720 143.325150,223.542587 145.246246,223.377686 
	C146.730026,223.250275 146.846878,221.840622 146.849930,220.673965 
	C146.871765,212.346405 146.834869,204.018707 146.854218,195.691147 
	C146.860168,193.134567 145.531372,192.125961 143.122238,192.121368 
	C139.791382,192.115005 136.459335,192.101990 133.130203,192.007446 
	C130.178543,191.923645 128.551193,190.618729 128.639511,187.367447 
	C128.775146,182.374237 128.752014,177.372101 128.627060,172.377975 
	C128.539459,168.876190 130.257065,167.774460 133.516541,167.662659 
	C137.839218,167.514420 142.321686,168.527191 146.553497,166.875534 
	C146.136780,163.516800 143.920761,164.073547 142.256943,164.019547 
	C138.263199,163.889877 134.212311,163.543213 130.276108,164.028076 
	C121.941750,165.054626 116.466347,160.868393 111.596138,154.951080 
	C109.659737,152.598358 109.621956,150.874237 111.650810,148.458633 
	C116.838402,142.282181 122.604691,138.134689 131.326706,139.578674 
	C135.216522,140.222656 139.304016,139.645370 143.301315,139.678436 
	C145.454575,139.696259 146.819244,139.009354 146.843491,136.573242 
	C146.866470,134.262787 145.807388,133.087021 143.527130,133.277191 
	C137.779892,133.756516 136.733490,130.582886 137.383926,125.777283 
	C137.626129,123.987747 137.505508,122.110184 137.285934,120.304924 
	C136.785019,116.186707 138.211182,113.758553 142.639175,113.936615 
	C145.926880,114.068817 147.310532,112.456734 146.913467,109.391647 
	C146.289612,104.575783 148.655609,102.065430 152.861511,100.322983 
	C157.004807,98.606461 160.900757,96.302216 164.959717,94.370331 
	C169.769104,92.081276 171.155121,92.992416 171.266815,98.463333 
	C171.341614,102.126442 171.411316,105.797295 171.256851,109.455124 
	C171.123825,112.605064 172.294006,114.394661 175.550613,113.886368 
	C181.162491,113.010452 184.476059,116.365616 187.916656,119.919189 
	C190.363205,122.446060 190.845001,124.571068 187.990250,127.021294 
	C186.604034,128.211075 185.383286,129.593613 183.796204,131.146423 
M199.151581,145.188156 
	C183.165222,145.185913 167.178848,145.180771 151.192490,145.182648 
	C142.699768,145.183640 134.206131,145.273987 125.714737,145.171631 
	C121.527466,145.121155 119.081757,147.830765 117.686371,150.909439 
	C116.469017,153.595322 119.847649,154.982712 121.342804,156.839035 
	C123.041687,158.948288 125.469452,158.666885 127.795883,158.666885 
	C150.110184,158.666962 172.424469,158.669144 194.738770,158.669662 
	C204.235077,158.669891 204.448547,158.354187 203.678162,148.804733 
	C203.476883,146.309830 202.561981,145.096375 199.151581,145.188156 
M133.886002,185.510803 
	C135.488724,187.246094 137.609909,186.640671 139.528625,186.648041 
	C153.153458,186.700348 166.785065,186.429962 180.400574,186.790070 
	C186.329758,186.946899 189.427460,183.928329 192.121643,179.622437 
	C187.064148,173.243500 187.064148,173.243256 179.507828,173.244934 
	C167.710571,173.247559 155.911911,173.139282 144.116440,173.285721 
	C133.027924,173.423386 132.897308,170.716827 133.886002,185.510803 
M154.133469,223.655106 
	C155.960449,223.736954 157.804672,223.688034 159.611099,223.925964 
	C164.418625,224.559143 166.091797,222.592728 165.830109,217.762039 
	C165.470169,211.117874 165.507263,204.428574 165.822189,197.779831 
	C166.030594,193.380432 164.485504,191.564499 160.123199,192.082947 
	C158.972961,192.219666 157.788849,192.179291 156.628342,192.100845 
	C153.371323,191.880692 152.199554,193.421539 152.297211,196.589554 
	C152.445938,201.415924 152.134827,206.260269 152.379044,211.078735 
	C152.585495,215.151779 151.252869,219.372818 154.133469,223.655106 
M167.475037,127.713776 
	C172.789886,126.784821 179.286697,130.348129 183.393311,123.522240 
	C181.632874,121.052734 179.854431,119.254990 176.531418,119.297127 
	C166.572372,119.423401 156.610153,119.411102 146.650497,119.314415 
	C143.395111,119.282814 142.323807,120.676170 142.292389,123.816208 
	C142.260437,127.009338 143.739517,127.775177 146.561829,127.733055 
	C153.200714,127.633942 159.842209,127.708809 167.475037,127.713776 
M164.636246,100.928101 
	C161.007874,101.676697 158.032745,103.881325 154.740997,105.379509 
	C151.793304,106.721107 152.129700,109.379066 152.511215,111.812233 
	C152.906433,114.332718 155.140335,113.855270 156.885147,113.929253 
	C165.906555,114.311821 165.924713,114.298904 165.727005,105.140381 
	C165.699066,103.846046 165.401840,102.557526 164.636246,100.928101 
M158.610138,133.220047 
	C156.597107,133.505722 154.120453,132.435211 152.799438,134.784348 
	C152.076447,136.070053 152.000092,137.666336 153.123245,138.932770 
	C153.989014,139.908997 163.565933,140.117279 164.664429,139.171768 
	C166.150024,137.893051 166.084290,136.078110 165.312119,134.660599 
	C164.019379,132.287476 161.487335,133.549057 158.610138,133.220047 
M164.975418,166.965866 
	C166.068436,164.838150 164.681961,164.220261 163.036194,164.100830 
	C160.398590,163.909409 157.744781,163.928116 155.097351,163.891251 
	C153.899841,163.874573 152.622009,163.941193 152.610855,165.574417 
	C152.600708,167.059784 153.747864,167.559052 154.967789,167.567368 
	C158.101349,167.588730 161.235840,167.476624 164.975418,166.965866 
z"/>
</svg>